<?xml version="1.0" encoding="UTF-8" standalone="no"?>
<svg
   xmlns:dc="http://purl.org/dc/elements/1.1/"
   xmlns:cc="http://creativecommons.org/ns#"
   xmlns:rdf="http://www.w3.org/1999/02/22-rdf-syntax-ns#"
   xmlns:svg="http://www.w3.org/2000/svg"
   xmlns="http://www.w3.org/2000/svg"
   xmlns:sodipodi="http://sodipodi.sourceforge.net/DTD/sodipodi-0.dtd"
   xmlns:inkscape="http://www.inkscape.org/namespaces/inkscape"
   id="Capa_1"
   enable-background="new 0 0 512 512"
   height="512"
   viewBox="0 0 512 512"
   width="512"
   version="1.1"
   sodipodi:docname="donate_4.svg"
   inkscape:version="0.92.5 (2060ec1f9f, 2020-04-08)">
  <metadata
     id="metadata55">
    <rdf:RDF>
      <cc:Work
         rdf:about="">
        <dc:format>image/svg+xml</dc:format>
        <dc:type
           rdf:resource="http://purl.org/dc/dcmitype/StillImage" />
        <dc:title />
      </cc:Work>
    </rdf:RDF>
  </metadata>
  <defs
     id="defs53" />
  <sodipodi:namedview
     pagecolor="#ffffff"
     bordercolor="#666666"
     borderopacity="1"
     objecttolerance="10"
     gridtolerance="10"
     guidetolerance="10"
     inkscape:pageopacity="0"
     inkscape:pageshadow="2"
     inkscape:window-width="2560"
     inkscape:window-height="1552"
     id="namedview51"
     showgrid="false"
     inkscape:zoom="1.84375"
     inkscape:cx="460.60881"
     inkscape:cy="223.40076"
     inkscape:window-x="0"
     inkscape:window-y="0"
     inkscape:window-maximized="1"
     inkscape:current-layer="layer1"
     inkscape:snap-object-midpoints="true" />
  <path
     d="M 305.24175,199.61027 H 31.654733 c -10.059054,0 -18.301164,8.18395 -18.334393,18.2525 v 0.10087 134.70894 0.10086 c 0.03323,10.06974 8.275339,18.2525 18.334393,18.2525 H 346.11762 c 10.09228,0 18.33439,-8.2504 18.33439,-18.35456 V 217.96481 c 0,-0.80819 -0.0333,-1.61638 -0.1341,-2.42457 L 345.815,233.89481 c -1.51432,1.17846 -2.25368,1.85255 -2.99422,1.85255 -0.77378,0 -1.51433,-0.67409 -3.02746,-1.85255 z"
     id="path2"
     inkscape:connector-curvature="0"
     style="clip-rule:evenodd;fill:#77efac;fill-opacity:1;fill-rule:evenodd;stroke-width:1.18676877"
     sodipodi:nodetypes="csccccssssccscc" />
  <g
     id="g12"
     transform="matrix(1.1867688,0,0,1.1867688,-203.19309,-47.291123)">
    <path
       style="clip-rule:evenodd;fill:#ffcccf;fill-rule:evenodd"
       inkscape:connector-curvature="0"
       id="path10"
       d="m 497.09,202.226 c 9.893,-10.244 9.893,-27.015 0,-37.288 -8.986,-9.308 -23.5,-6.981 -33.082,1.674 -1.758,1.617 -2.41,2.412 -2.863,2.384 -0.482,0.028 -1.106,-0.766 -2.891,-2.384 -9.581,-8.655 -24.095,-10.982 -33.082,-1.674 -9.893,10.273 -9.893,27.043 0,37.288 l 4.025,3.973 0.284,0.312 29.113,28.888 c 1.276,0.993 1.899,1.561 2.551,1.561 0.624,0 1.247,-0.568 2.523,-1.561 l 15.591,-15.466 13.834,-13.735 z" />
  </g>
  <g
     id="g16"
     transform="matrix(1.1867688,0,0,1.1867688,-203.19309,-47.291123)">
    <path
       style="clip-rule:evenodd;fill:#ff8086;fill-rule:evenodd"
       inkscape:connector-curvature="0"
       id="path14"
       d="m 416.101,58.949 c -11.878,-12.344 -31.097,-9.251 -43.797,2.213 -2.353,2.1 -3.175,3.178 -3.827,3.15 -0.624,0.028 -1.446,-1.05 -3.799,-3.15 -12.7,-11.464 -31.919,-14.558 -43.797,-2.213 -13.097,13.564 -13.097,35.784 0,49.376 l 5.301,5.25 38.949,38.65 c 1.673,1.334 2.523,2.072 3.345,2.1 0.85,-0.028 1.701,-0.766 3.373,-2.1 l 38.949,-38.65 5.301,-5.25 c 13.099,-13.592 13.099,-35.811 0.002,-49.376 z" />
  </g>
  <g
     id="g20"
     transform="matrix(1.1867688,0,0,1.1867688,-203.19309,-47.291123)">
    <path
       style="clip-rule:evenodd;fill:#eceaed;fill-rule:evenodd"
       inkscape:connector-curvature="0"
       id="path18"
       d="M 444.052,368.999 393.48,350.951 362.864,340.026 v 10.925 l -0.056,75.342 22.281,-15.693 35.491,50.426 36.682,-25.851 -35.491,-50.455 z" />
  </g>
  <g
     id="g24"
     transform="matrix(1.1867688,0,0,1.1867688,-203.19309,-47.291123)">
    <path
       style="clip-rule:evenodd;fill:#e7b1b9;fill-rule:evenodd"
       inkscape:connector-curvature="0"
       id="path22"
       d="m 497.09,164.938 c -6.208,-6.442 -15.081,-7.293 -23.103,-4.37 9.043,10.329 8.759,26.419 -0.85,36.38 l -3.997,3.973 -22.65,22.475 12.104,12.004 c 1.276,0.993 1.899,1.561 2.551,1.561 0.624,0 1.247,-0.568 2.523,-1.561 l 15.591,-15.466 13.834,-13.735 3.997,-3.973 c 9.893,-10.244 9.893,-27.015 0,-37.288 z" />
  </g>
  <g
     id="g28"
     transform="matrix(1.1867688,0,0,1.1867688,-203.19309,-47.291123)">
    <path
       style="clip-rule:evenodd;fill:#e5646e;fill-rule:evenodd"
       inkscape:connector-curvature="0"
       id="path26"
       d="m 389.313,51.997 c 7.966,13.422 6.322,31.357 -4.876,42.991 l -5.301,5.25 -33.195,32.946 19.191,19.041 c 1.673,1.334 2.523,2.072 3.345,2.1 0.85,-0.028 1.701,-0.766 3.373,-2.1 l 38.949,-38.65 5.301,-5.25 c 13.097,-13.593 13.097,-35.812 0,-49.376 -7.256,-7.519 -17.234,-9.307 -26.787,-6.952 z" />
  </g>
  <g
     inkscape:groupmode="layer"
     id="layer1"
     inkscape:label="Layer 1">
    <path
       style="fill:#42d580;fill-opacity:1;stroke:none;stroke-width:1.18676877;stroke-miterlimit:4;stroke-dasharray:none;stroke-opacity:1"
       d="m 293.79277,195.53909 -11.35431,11.40519 36.49697,36.3245 a 12.754064,11.843775 89.866136 0 1 5.82964,10.94088 12.754064,11.843775 89.866136 0 1 -0.0134,0.28278 7.4022191,7.4022191 0 0 0 0.0441,0.0119 l 0.27757,118.7971 37.19535,-0.0868 -0.34306,-146.82977 -37.05629,0.0863 z"
       id="rect842"
       inkscape:connector-curvature="0" />
  </g>
  <g
     inkscape:groupmode="layer"
     id="layer2"
     inkscape:label="Layer 2">
    <g
       aria-label="TIP"
       style="font-style:normal;font-variant:normal;font-weight:bold;font-stretch:normal;font-size:106.66666412px;line-height:1.25;font-family:Quicksand;-inkscape-font-specification:'Quicksand Bold';letter-spacing:0px;word-spacing:0px;fill:#000000;fill-opacity:1;stroke:none"
       id="text845"
       transform="translate(-58)">
      <path
         d="m 175.21424,326.84119 q -3.54449,0 -5.82308,-2.152 -2.2786,-2.2786 -2.2786,-5.56991 v -73.42143 h 16.45654 v 73.42143 q 0,3.29131 -2.4052,5.56991 -2.27859,2.152 -5.94966,2.152 z m -27.9761,-74.05438 q -3.29131,0 -5.5699,-2.02542 -2.15201,-2.02541 -2.15201,-5.31672 0,-3.29131 2.15201,-5.19014 2.27859,-2.02542 5.5699,-2.02542 h 56.20537 q 3.29131,0 5.44331,2.02542 2.2786,2.02543 2.2786,5.31672 0,3.29131 -2.2786,5.31673 -2.152,1.89883 -5.44331,1.89883 z"
         style="letter-spacing:10px;stroke-width:1.18676877"
         id="path872"
         inkscape:connector-curvature="0" />
      <path
         d="m 252.14843,319.11928 q 0,3.29131 -2.40519,5.56991 -2.40518,2.152 -5.56989,2.152 -3.54449,0 -5.69651,-2.152 -2.15199,-2.2786 -2.15199,-5.56991 v -73.16825 q 0,-3.29131 2.2786,-5.44331 2.27859,-2.27861 5.82306,-2.27861 3.03813,0 5.31673,2.27861 2.40519,2.152 2.40519,5.44331 z"
         style="letter-spacing:10px;stroke-width:1.18676877"
         id="path874"
         inkscape:connector-curvature="0" />
      <path
         d="m 319.58849,238.22911 q 6.58261,0 12.27911,3.79766 5.82308,3.79767 9.36755,10.25368 3.54449,6.45603 3.54449,14.43112 0,7.8485 -3.54449,14.30452 -3.54447,6.45603 -9.36755,10.38027 -5.6965,3.79765 -12.27911,3.79765 h -23.29231 l 1.26588,-2.27858 v 26.20385 q 0,3.29131 -2.02541,5.56991 -2.02543,2.152 -5.31672,2.152 -3.16473,0 -5.19015,-2.152 -2.02541,-2.2786 -2.02541,-5.56991 v -73.16825 q 0,-3.29131 2.152,-5.44331 2.2786,-2.27861 5.5699,-2.27861 z m 0,42.5338 q 2.40518,0 4.68378,-2.02541 2.27861,-2.02543 3.79766,-5.19015 1.51907,-3.2913 1.51907,-6.83578 0,-3.67108 -1.51907,-6.8358 -1.51905,-3.1647 -3.79766,-5.06353 -2.2786,-2.02543 -4.68378,-2.02543 H 296.043 l 1.51906,-2.27859 v 32.28011 l -1.39247,-2.02542 z"
         style="letter-spacing:10px;stroke-width:1.18676877"
         id="path876"
         inkscape:connector-curvature="0" />
    </g>
    <g
       id="g46"
       transform="matrix(1.1867688,0,0,1.1867688,-203.19309,-47.291123)">
      <path
         inkscape:connector-curvature="0"
         id="path42"
         d="m 502.485,159.729 c -10.575,-10.954 -27.915,-11.024 -41.35,-0.493 -13.397,-10.532 -30.766,-10.477 -41.365,0.499 -10.23,10.622 -12.199,26.599 -5.921,39.275 H 194.95 c -12.655,0 -22.95,10.303 -22.95,22.967 v 113.509 c 0,12.663 10.295,22.965 22.95,22.965 h 15.875 c 4.143,0 7.5,-3.357 7.5,-7.5 0,-4.143 -3.357,-7.5 -7.5,-7.5 H 194.95 c -4.383,0 -7.949,-3.573 -7.949,-7.965 V 221.977 c 0,-4.393 3.566,-7.966 7.949,-7.966 h 231.449 l 26.91,26.71 c 2.063,2.054 4.867,3.74 7.837,3.739 2.959,-0.001 5.751,-1.692 7.806,-3.737 l 2.921,-2.899 v 97.663 c 0,4.392 -3.566,7.965 -7.949,7.965 h -69.148 l -29.39,-10.488 c -2.295,-0.82 -4.848,-0.472 -6.84,0.932 -1.993,1.404 -3.179,3.69 -3.181,6.127 l -0.002,3.43 H 251.436 c -4.143,0 -7.5,3.357 -7.5,7.5 0,4.143 3.357,7.5 7.5,7.5 h 103.916 l -0.045,67.836 c -0.002,2.802 1.558,5.37 4.044,6.661 2.486,1.29 5.484,1.089 7.775,-0.524 l 16.147,-11.372 31.173,44.291 c 1.145,1.628 2.89,2.733 4.851,3.073 0.427,0.074 0.855,0.11 1.282,0.11 1.536,0 3.048,-0.473 4.32,-1.369 l 36.682,-25.852 c 3.384,-2.385 4.195,-7.061 1.814,-10.447 l -31.182,-44.328 16.161,-11.404 c 2.288,-1.614 3.486,-4.369 3.107,-7.144 -0.379,-2.774 -2.272,-5.107 -4.91,-6.048 l -9.764,-3.484 h 27.115 c 12.655,0 22.95,-10.302 22.95,-22.965 V 222.935 l 15.504,-15.389 c 0.036,-0.036 0.072,-0.072 0.107,-0.109 12.687,-13.136 12.69,-34.534 0.002,-47.708 z m -55.669,273.632 -24.423,17.211 -31.172,-44.289 c -1.145,-1.627 -2.89,-2.732 -4.85,-3.073 -0.427,-0.074 -0.855,-0.11 -1.283,-0.11 -1.536,0 -3.046,0.472 -4.318,1.368 l -10.452,7.361 0.04,-61.165 57.559,20.54 -10.47,7.388 c -3.381,2.386 -4.19,7.059 -1.811,10.444 z m 44.928,-236.396 -30.612,30.384 -30.622,-30.392 c -7.087,-7.402 -7.065,-19.413 0.058,-26.809 6.176,-6.396 16.284,-3.728 22.649,2.022 0.465,0.421 0.841,0.78 1.152,1.076 1.373,1.309 3.415,3.253 6.712,3.253 0.041,-0.001 0.081,-0.001 0.121,0 3.304,0 5.391,-1.996 6.795,-3.34 0.302,-0.288 0.66,-0.632 1.038,-0.98 6.375,-5.758 16.483,-8.428 22.652,-2.036 7.132,7.403 7.152,19.42 0.057,26.822 z"
         sodipodi:nodetypes="ccccssssssssssscccccsscccccssscccccccsccccccccssccccccccsccccccccccccccccccc" />
      <path
         inkscape:connector-curvature="0"
         id="path44"
         d="m 326.086,113.728 c 2.982,-2.874 3.071,-7.622 0.197,-10.606 -10.363,-10.755 -10.365,-28.234 0.003,-38.972 9.213,-9.57 24.066,-5.815 33.398,2.609 0.685,0.611 1.226,1.127 1.664,1.544 1.565,1.49 3.688,3.512 7.074,3.511 0.036,-10e-4 0.072,-10e-4 0.106,0 3.409,0 5.554,-2.038 7.135,-3.54 0.434,-0.412 0.965,-0.918 1.665,-1.543 9.302,-8.397 24.156,-12.153 33.376,-2.572 10.34,10.709 10.357,28.144 0.053,38.904 l -42.268,41.932 -17.441,-17.281 c -2.941,-2.913 -7.691,-2.895 -10.607,0.05 -2.915,2.942 -2.893,7.691 0.05,10.607 l 19.362,19.183 c 2.259,2.247 5.35,4.27 8.623,4.272 3.274,0.001 6.397,-2.027 8.657,-4.276 l 38.943,-38.644 5.301,-5.249 c 0.042,-0.041 0.083,-0.083 0.124,-0.125 15.898,-16.5 15.895,-43.322 0.003,-59.781 -13.512,-14.045 -36.08,-13.604 -53.015,0.784 -16.962,-14.389 -39.51,-14.818 -53.004,-0.793 -15.901,16.468 -15.904,43.29 -0.006,59.79 2.877,2.98 7.624,3.07 10.607,0.196 z" />
    </g>
  </g>
</svg>
