<?xml version="1.0" encoding="UTF-8" standalone="no"?>
<svg
   xmlns:dc="http://purl.org/dc/elements/1.1/"
   xmlns:cc="http://creativecommons.org/ns#"
   xmlns:rdf="http://www.w3.org/1999/02/22-rdf-syntax-ns#"
   xmlns:svg="http://www.w3.org/2000/svg"
   xmlns="http://www.w3.org/2000/svg"
   xmlns:sodipodi="http://sodipodi.sourceforge.net/DTD/sodipodi-0.dtd"
   xmlns:inkscape="http://www.inkscape.org/namespaces/inkscape"
   id="Capa_1"
   enable-background="new 0 0 512 512"
   height="512"
   viewBox="0 0 512 512"
   width="512"
   version="1.1"
   sodipodi:docname="donate_green.svg"
   inkscape:version="0.92.5 (2060ec1f9f, 2020-04-08)">
  <metadata
     id="metadata55">
    <rdf:RDF>
      <cc:Work
         rdf:about="">
        <dc:format>image/svg+xml</dc:format>
        <dc:type
           rdf:resource="http://purl.org/dc/dcmitype/StillImage" />
        <dc:title></dc:title>
      </cc:Work>
    </rdf:RDF>
  </metadata>
  <defs
     id="defs53" />
  <sodipodi:namedview
     pagecolor="#ffffff"
     bordercolor="#666666"
     borderopacity="1"
     objecttolerance="10"
     gridtolerance="10"
     guidetolerance="10"
     inkscape:pageopacity="0"
     inkscape:pageshadow="2"
     inkscape:window-width="1888"
     inkscape:window-height="1309"
     id="namedview51"
     showgrid="false"
     inkscape:zoom="1.3037281"
     inkscape:cx="84.185037"
     inkscape:cy="342.77966"
     inkscape:window-x="0"
     inkscape:window-y="0"
     inkscape:window-maximized="0"
     inkscape:current-layer="g4" />
  <g
     id="g4">
    <path
       style="clip-rule:evenodd;fill:#77efac;fill-rule:evenodd;fill-opacity:1"
       inkscape:connector-curvature="0"
       id="path2"
       d="M 429.481,206.511 H 22.95 c -8.476,0 -15.421,6.896 -15.449,15.38 v 0.085 113.509 0.085 c 0.028,8.485 6.973,15.38 15.449,15.38 h 440.974 c 8.504,0 15.449,-6.952 15.449,-15.466 V 221.977 c 0,-0.681 -0.028,-1.362 -0.113,-2.043 L 463.669,235.4 c -1.276,0.993 -1.899,1.561 -2.523,1.561 -0.652,0 -1.276,-0.568 -2.551,-1.561 z" />
  </g>
  <g
     id="g8">
    <path
       style="clip-rule:evenodd;fill:#9dc6fb;fill-rule:evenodd"
       inkscape:connector-curvature="0"
       id="path6"
       d="m 393.48,350.951 h 70.444 c 8.504,0 15.449,-6.952 15.449,-15.466 V 221.977 c 0,-0.681 -0.028,-1.362 -0.113,-2.043 L 463.669,235.4 c -1.276,0.993 -1.899,1.561 -2.523,1.561 -0.652,0 -1.276,-0.568 -2.551,-1.561 l -29.113,-28.888 h -87.169 c 6.18,12.543 11.112,26.221 14.627,40.75 2.353,9.79 4.025,19.949 4.989,30.392 0.624,6.697 0.935,13.536 0.935,20.46 0,18.445 -2.268,36.209 -6.435,52.838 h 6.435 v -10.925 z" />
    <path
       style="fill:#42d580;fill-opacity:1;stroke-width:0.76703107"
       d="m 380.18233,337.88886 c -8.01547,-2.93785 -15.73397,-5.36466 -17.15221,-5.39292 -2.53094,-0.0504 -2.57035,-0.10315 -2.13173,-2.85105 0.24579,-1.53981 0.67968,-5.30811 0.96419,-8.37398 0.45821,-4.93765 0.71528,-5.62401 2.25075,-6.00939 0.9534,-0.23929 2.5428,-1.29619 3.53201,-2.34868 l 1.79856,-1.91361 0.21883,-27.85572 0.21883,-27.85571 6.0506,-0.27478 c 5.08981,-0.23114 6.35809,-0.56363 7.98697,-2.09389 2.54267,-2.38871 3.14333,-5.41545 1.74085,-8.77206 -1.75867,-4.20909 -3.27932,-4.64836 -17.66179,-5.10196 l -12.95118,-0.40846 -2.85345,-8.43734 c -1.56939,-4.64054 -3.42126,-9.77386 -4.11526,-11.40738 -0.694,-1.63352 -1.26182,-3.27305 -1.26182,-3.6434 0,-0.37777 17.39982,-0.67336 39.63728,-0.67336 h 39.63728 l 14.66608,14.49451 c 11.30537,11.17311 15.32034,14.67515 17.52125,15.28286 3.62878,1.00195 6.81904,0.11588 10.64085,-2.95541 l 2.92333,-2.34925 v 48.38374 c 0,53.04014 0.0485,52.44923 -4.50367,54.80328 -2.01449,1.04174 -6.99457,1.19445 -37.45319,1.14849 l -35.12977,-0.053 z m 52.88805,-23.25119 c 3.09266,-1.29221 4.25577,-3.19663 4.25577,-6.96822 0,-6.45858 -3.10965,-8.05383 -15.6995,-8.05383 h -8.8455 v -6.83904 -6.83904 l 9.26911,-0.256 9.26911,-0.25599 2.23636,-2.50495 c 3.02169,-3.38461 3.02169,-6.94612 0,-10.33072 l -2.23636,-2.50495 -9.26911,-0.256 -9.26911,-0.256 v -6.83904 -6.83904 h 8.8455 c 9.50505,0 13.4016,-0.97469 14.87073,-3.71979 1.18322,-2.21088 1.02365,-7.16611 -0.29123,-9.04336 -2.1304,-3.04158 -4.73292,-3.45326 -20.23154,-3.20034 l -14.66774,0.23935 -2.12493,2.12611 -2.12492,2.1261 -0.21657,31.97978 c -0.23572,34.80739 -0.18057,35.33079 3.9906,37.87436 2.07672,1.26639 4.01066,1.44083 16.00165,1.44335 10.03161,0.002 14.32671,-0.28429 16.23768,-1.08274 z"
       id="path4588"
       inkscape:connector-curvature="0" />
  </g>
  <g
     id="g12">
    <path
       style="clip-rule:evenodd;fill:#ffcccf;fill-rule:evenodd"
       inkscape:connector-curvature="0"
       id="path10"
       d="m 497.09,202.226 c 9.893,-10.244 9.893,-27.015 0,-37.288 -8.986,-9.308 -23.5,-6.981 -33.082,1.674 -1.758,1.617 -2.41,2.412 -2.863,2.384 -0.482,0.028 -1.106,-0.766 -2.891,-2.384 -9.581,-8.655 -24.095,-10.982 -33.082,-1.674 -9.893,10.273 -9.893,27.043 0,37.288 l 4.025,3.973 0.284,0.312 29.113,28.888 c 1.276,0.993 1.899,1.561 2.551,1.561 0.624,0 1.247,-0.568 2.523,-1.561 l 15.591,-15.466 13.834,-13.735 z" />
  </g>
  <g
     id="g16">
    <path
       style="clip-rule:evenodd;fill:#ff8086;fill-rule:evenodd"
       inkscape:connector-curvature="0"
       id="path14"
       d="m 416.101,58.949 c -11.878,-12.344 -31.097,-9.251 -43.797,2.213 -2.353,2.1 -3.175,3.178 -3.827,3.15 -0.624,0.028 -1.446,-1.05 -3.799,-3.15 -12.7,-11.464 -31.919,-14.558 -43.797,-2.213 -13.097,13.564 -13.097,35.784 0,49.376 l 5.301,5.25 38.949,38.65 c 1.673,1.334 2.523,2.072 3.345,2.1 0.85,-0.028 1.701,-0.766 3.373,-2.1 l 38.949,-38.65 5.301,-5.25 c 13.099,-13.592 13.099,-35.811 0.002,-49.376 z" />
  </g>
  <g
     id="g20">
    <path
       style="clip-rule:evenodd;fill:#eceaed;fill-rule:evenodd"
       inkscape:connector-curvature="0"
       id="path18"
       d="M 444.052,368.999 393.48,350.951 362.864,340.026 v 10.925 l -0.056,75.342 22.281,-15.693 35.491,50.426 36.682,-25.851 -35.491,-50.455 z" />
  </g>
  <g
     id="g24">
    <path
       style="clip-rule:evenodd;fill:#e7b1b9;fill-rule:evenodd"
       inkscape:connector-curvature="0"
       id="path22"
       d="m 497.09,164.938 c -6.208,-6.442 -15.081,-7.293 -23.103,-4.37 9.043,10.329 8.759,26.419 -0.85,36.38 l -3.997,3.973 -22.65,22.475 12.104,12.004 c 1.276,0.993 1.899,1.561 2.551,1.561 0.624,0 1.247,-0.568 2.523,-1.561 l 15.591,-15.466 13.834,-13.735 3.997,-3.973 c 9.893,-10.244 9.893,-27.015 0,-37.288 z" />
  </g>
  <g
     id="g28">
    <path
       style="clip-rule:evenodd;fill:#e5646e;fill-rule:evenodd"
       inkscape:connector-curvature="0"
       id="path26"
       d="m 389.313,51.997 c 7.966,13.422 6.322,31.357 -4.876,42.991 l -5.301,5.25 -33.195,32.946 19.191,19.041 c 1.673,1.334 2.523,2.072 3.345,2.1 0.85,-0.028 1.701,-0.766 3.373,-2.1 l 38.949,-38.65 5.301,-5.25 c 13.097,-13.593 13.097,-35.812 0,-49.376 -7.256,-7.519 -17.234,-9.307 -26.787,-6.952 z" />
  </g>
  <g
     id="g46">
    <path
       inkscape:connector-curvature="0"
       id="path30"
       d="m 206.195,240.214 c -3.134,0.977 -5.269,3.877 -5.269,7.16 v 60.301 c 0,4.143 3.357,7.5 7.5,7.5 4.143,0 7.5,-3.357 7.5,-7.5 v -36.229 l 27.066,39.217 c 2.207,3.194 5.884,4.554 9.373,3.47 3.557,-1.11 5.856,-4.446 5.856,-8.573 l -0.567,-58.372 c -0.04,-4.117 -3.391,-7.427 -7.498,-7.427 -0.025,0 -0.05,0 -0.075,0 -4.142,0.041 -7.467,3.431 -7.427,7.573 l 0.359,36.952 -28.413,-41.171 c -1.864,-2.701 -5.268,-3.876 -8.405,-2.901 z" />
    <path
       inkscape:connector-curvature="0"
       id="path32"
       d="m 49.482,241.548 c -1.992,0 -3.903,0.793 -5.31,2.203 -1.407,1.411 -2.195,3.323 -2.19,5.316 0,0.001 0.057,22.546 0.057,29.21 0,8.154 0.086,29.429 0.086,29.429 0.008,1.99 0.807,3.896 2.22,5.296 1.405,1.393 3.303,2.174 5.28,2.174 h 0.035 c 0.5,-0.002 12.321,-0.058 17.051,-0.143 17.688,-0.319 30.525,-15.741 30.525,-36.671 0,-22.02 -12.515,-36.814 -31.142,-36.814 z m 32.754,36.815 c 0,10.646 -4.884,21.476 -15.794,21.672 -2.152,0.039 -5.918,0.072 -9.345,0.096 -0.025,-6.924 -0.058,-16.858 -0.058,-21.854 0,-4.165 -0.022,-14.529 -0.039,-21.728 h 9.094 c 15.364,0 16.142,18.171 16.142,21.814 z" />
    <path
       inkscape:connector-curvature="0"
       id="path34"
       d="m 286.362,310.345 3.811,-10.01 h 26.049 l 3.764,9.987 c 1.132,3.005 3.986,4.857 7.019,4.857 0.879,0 1.773,-0.155 2.645,-0.484 3.876,-1.461 5.833,-5.787 4.372,-9.663 l -22.451,-59.564 c -0.018,-0.047 -0.036,-0.094 -0.055,-0.141 -1.353,-3.381 -4.581,-5.566 -8.225,-5.566 -3.644,0 -6.872,2.185 -8.225,5.566 -0.016,0.039 -0.031,0.078 -0.046,0.117 l -22.677,59.564 c -1.475,3.871 0.469,8.204 4.34,9.678 3.873,1.475 8.206,-0.47 9.679,-4.341 z m 16.901,-44.392 7.306,19.381 h -14.684 z" />
    <path
       inkscape:connector-curvature="0"
       id="path36"
       d="m 429.849,255.3 c 4.143,0 7.5,-3.357 7.5,-7.5 0,-4.143 -3.357,-7.5 -7.5,-7.5 h -25.201 c -4.143,0 -7.5,3.357 -7.5,7.5 v 59.876 c 0,4.143 3.358,7.5 7.5,7.5 h 25.201 c 4.143,0 7.5,-3.357 7.5,-7.5 0,-4.143 -3.357,-7.5 -7.5,-7.5 h -17.701 v -14.938 h 15.859 c 4.143,0 7.5,-3.357 7.5,-7.5 0,-4.143 -3.357,-7.5 -7.5,-7.5 H 412.148 V 255.3 Z" />
    <path
       inkscape:connector-curvature="0"
       id="path38"
       d="m 361.929,315.176 c 4.143,0 7.5,-3.357 7.5,-7.5 v -52.915 h 9.225 c 4.143,0 7.5,-3.357 7.5,-7.5 0,-4.143 -3.357,-7.5 -7.5,-7.5 h -33.308 c -4.143,0 -7.5,3.357 -7.5,7.5 0,4.143 3.358,7.5 7.5,7.5 h 9.083 v 52.915 c 0,4.142 3.357,7.5 7.5,7.5 z" />
    <path
       inkscape:connector-curvature="0"
       id="path40"
       d="m 108.599,276.518 c 0,20.784 16.896,37.693 37.663,37.693 20.783,0 37.69,-16.909 37.69,-37.693 0,-20.8 -16.908,-37.722 -37.69,-37.722 -20.767,-0.001 -37.663,16.922 -37.663,37.722 z m 60.353,0 c 0,12.513 -10.179,22.693 -22.69,22.693 -12.496,0 -22.663,-10.18 -22.663,-22.693 0,-12.529 10.166,-22.722 22.663,-22.722 12.511,0 22.69,10.193 22.69,22.722 z" />
    <path
       inkscape:connector-curvature="0"
       id="path42"
       d="m 502.485,159.729 c -10.575,-10.954 -27.915,-11.024 -41.35,-0.493 -13.397,-10.532 -30.766,-10.477 -41.365,0.499 -10.23,10.622 -12.199,26.599 -5.921,39.275 H 22.95 C 10.295,199.01 0,209.313 0,221.977 v 113.509 c 0,12.663 10.295,22.965 22.95,22.965 h 185.875 c 4.143,0 7.5,-3.357 7.5,-7.5 0,-4.143 -3.357,-7.5 -7.5,-7.5 H 22.95 c -4.383,0 -7.949,-3.573 -7.949,-7.965 V 221.977 c 0,-4.393 3.566,-7.966 7.949,-7.966 h 403.449 l 26.91,26.71 c 2.063,2.054 4.867,3.74 7.837,3.739 2.959,-0.001 5.751,-1.692 7.806,-3.737 l 2.921,-2.899 v 97.663 c 0,4.392 -3.566,7.965 -7.949,7.965 h -69.148 l -29.39,-10.488 c -2.295,-0.82 -4.848,-0.472 -6.84,0.932 -1.993,1.404 -3.179,3.69 -3.181,6.127 l -0.002,3.43 H 243.436 c -4.143,0 -7.5,3.357 -7.5,7.5 0,4.143 3.357,7.5 7.5,7.5 h 111.916 l -0.045,67.836 c -0.002,2.802 1.558,5.37 4.044,6.661 2.486,1.29 5.484,1.089 7.775,-0.524 l 16.147,-11.372 31.173,44.291 c 1.145,1.628 2.89,2.733 4.851,3.073 0.427,0.074 0.855,0.11 1.282,0.11 1.536,0 3.048,-0.473 4.32,-1.369 l 36.682,-25.852 c 3.384,-2.385 4.195,-7.061 1.814,-10.447 l -31.182,-44.328 16.161,-11.404 c 2.288,-1.614 3.486,-4.369 3.107,-7.144 -0.379,-2.774 -2.272,-5.107 -4.91,-6.048 l -9.764,-3.484 h 27.115 c 12.655,0 22.95,-10.302 22.95,-22.965 V 222.935 l 15.504,-15.389 c 0.036,-0.036 0.072,-0.072 0.107,-0.109 12.687,-13.136 12.69,-34.534 0.002,-47.708 z m -55.669,273.632 -24.423,17.211 -31.172,-44.289 c -1.145,-1.627 -2.89,-2.732 -4.85,-3.073 -0.427,-0.074 -0.855,-0.11 -1.283,-0.11 -1.536,0 -3.046,0.472 -4.318,1.368 l -10.452,7.361 0.04,-61.165 57.559,20.54 -10.47,7.388 c -3.381,2.386 -4.19,7.059 -1.811,10.444 z m 44.928,-236.396 -30.612,30.384 -30.622,-30.392 c -7.087,-7.402 -7.065,-19.413 0.058,-26.809 6.176,-6.396 16.284,-3.728 22.649,2.022 0.465,0.421 0.841,0.78 1.152,1.076 1.373,1.309 3.415,3.253 6.712,3.253 0.041,-0.001 0.081,-0.001 0.121,0 3.304,0 5.391,-1.996 6.795,-3.34 0.302,-0.288 0.66,-0.632 1.038,-0.98 6.375,-5.758 16.483,-8.428 22.652,-2.036 7.132,7.403 7.152,19.42 0.057,26.822 z" />
    <path
       inkscape:connector-curvature="0"
       id="path44"
       d="m 326.086,113.728 c 2.982,-2.874 3.071,-7.622 0.197,-10.606 -10.363,-10.755 -10.365,-28.234 0.003,-38.972 9.213,-9.57 24.066,-5.815 33.398,2.609 0.685,0.611 1.226,1.127 1.664,1.544 1.565,1.49 3.688,3.512 7.074,3.511 0.036,-10e-4 0.072,-10e-4 0.106,0 3.409,0 5.554,-2.038 7.135,-3.54 0.434,-0.412 0.965,-0.918 1.665,-1.543 9.302,-8.397 24.156,-12.153 33.376,-2.572 10.34,10.709 10.357,28.144 0.053,38.904 l -42.268,41.932 -17.441,-17.281 c -2.941,-2.913 -7.691,-2.895 -10.607,0.05 -2.915,2.942 -2.893,7.691 0.05,10.607 l 19.362,19.183 c 2.259,2.247 5.35,4.27 8.623,4.272 3.274,0.001 6.397,-2.027 8.657,-4.276 l 38.943,-38.644 5.301,-5.249 c 0.042,-0.041 0.083,-0.083 0.124,-0.125 15.898,-16.5 15.895,-43.322 0.003,-59.781 -13.512,-14.045 -36.08,-13.604 -53.015,0.784 -16.962,-14.389 -39.51,-14.818 -53.004,-0.793 -15.901,16.468 -15.904,43.29 -0.006,59.79 2.877,2.98 7.624,3.07 10.607,0.196 z" />
  </g>
</svg>
